<svg width="341" height="261" viewBox="0 0 341 261" fill="none" xmlns="http://www.w3.org/2000/svg">
<path fill-rule="evenodd" clip-rule="evenodd" d="M292.5 260C330.786 260 341 234.534 341 202.502C341 170.469 330.786 145 292.5 145L238 145L238 260H292.5ZM319 161.002H258V244.002H319V161.002Z" fill="#2C2621"/>
<path fill-rule="evenodd" clip-rule="evenodd" d="M120 145H138.482H140H159.703L204.196 257.405V145H224.196V260H205.223H204.196H184.346L140 148.805V260H120V145Z" fill="#2C2621"/>
<path fill-rule="evenodd" clip-rule="evenodd" d="M43.1622 145H23.2129V145.002L23.0005 145.002V161.002H23.2129V244.002H23.0005V260.002H106.787V244.002H43.1622V209L107 209V193L43.1622 193V161.002L106.787 161.002V145.002L43.1622 145.002V145Z" fill="#2C2621"/>
<path fill-rule="evenodd" clip-rule="evenodd" d="M130 4H148.482H150H169.703L214.196 116.405V4H234.196V119H215.223H214.196H194.346L150 7.80527V119H130V4Z" fill="#2C2621"/>
<path fill-rule="evenodd" clip-rule="evenodd" d="M59 123C47.257 123 36.9391 120.452 28.0464 115.355C19.2676 110.145 12.37 102.896 7.35362 93.6091C2.45121 84.3218 0 73.6188 0 61.5C0 49.3812 2.45121 38.7348 7.35362 29.5608C12.37 20.2735 19.2676 13.0249 28.0464 7.81492C36.9391 2.60497 47.257 0 59 0C70.857 0 81.1749 2.60497 89.9536 7.81492C98.8464 13.0249 105.744 20.2735 110.646 29.5608C115.549 38.7348 118 49.3812 118 61.5C118 73.6188 115.549 84.3218 110.646 93.6091C105.744 102.896 98.8464 110.145 89.9536 115.355C81.1749 120.452 70.857 123 59 123ZM96 20H22V103H96V20Z" fill="#2C2621"/>
</svg>
