<svg width="601" height="123" viewBox="0 0 601 123" fill="none" xmlns="http://www.w3.org/2000/svg">
<path fill-rule="evenodd" clip-rule="evenodd" d="M552.5 119C590.786 119 601 93.5345 601 61.502C601 29.4694 590.786 4 552.5 4L498 4L498 119H552.5ZM579 20.002H518V103.002H579V20.002Z" fill="#2C2621"/>
<path fill-rule="evenodd" clip-rule="evenodd" d="M380 4H398.482H400H419.703L464.196 116.405V4H484.196V119H465.223H464.196H444.346L400 7.80527V119H380V4Z" fill="#2C2621"/>
<path fill-rule="evenodd" clip-rule="evenodd" d="M303.163 4H283.213V4.00195L283 4.00195V20.002H283.213V103.002H283V119.002H366.787V103.002H303.163V68L367 68V52L303.163 52V20.002L366.787 20.002V4.00195L303.163 4.00195V4Z" fill="#2C2621"/>
<path fill-rule="evenodd" clip-rule="evenodd" d="M130 4H148.482H150H169.703L214.196 116.405V4H234.196V119H215.223H214.196H194.346L150 7.80527V119H130V4Z" fill="#2C2621"/>
<path fill-rule="evenodd" clip-rule="evenodd" d="M59 123C47.257 123 36.9391 120.452 28.0464 115.355C19.2676 110.145 12.37 102.896 7.35362 93.6091C2.45121 84.3218 0 73.6188 0 61.5C0 49.3812 2.45121 38.7348 7.35362 29.5608C12.37 20.2735 19.2676 13.0249 28.0464 7.81492C36.9391 2.60497 47.257 0 59 0C70.857 0 81.1749 2.60497 89.9536 7.81492C98.8464 13.0249 105.744 20.2735 110.646 29.5608C115.549 38.7348 118 49.3812 118 61.5C118 73.6188 115.549 84.3218 110.646 93.6091C105.744 102.896 98.8464 110.145 89.9536 115.355C81.1749 120.452 70.857 123 59 123ZM96 20H22V103H96V20Z" fill="#2C2621"/>
</svg>
